<?xml version="1.0" encoding="UTF-8" standalone="no"?>
<!-- Created with Inkscape (http://www.inkscape.org/) -->

<svg
   xmlns:dc="http://purl.org/dc/elements/1.1/"
   xmlns:cc="http://creativecommons.org/ns#"
   xmlns:rdf="http://www.w3.org/1999/02/22-rdf-syntax-ns#"
   xmlns:svg="http://www.w3.org/2000/svg"
   xmlns="http://www.w3.org/2000/svg"
   xmlns:xlink="http://www.w3.org/1999/xlink"
   xmlns:sodipodi="http://sodipodi.sourceforge.net/DTD/sodipodi-0.dtd"
   xmlns:inkscape="http://www.inkscape.org/namespaces/inkscape"
   width="236.82094mm"
   height="225.77777mm"
   viewBox="0 0 839.12931 799.99997"
   id="svg2"
   version="1.1"
   inkscape:version="0.91 r13725"
   sodipodi:docname="Star of Red Army man by Rones.svg">
  <defs
     id="defs4">
    <linearGradient
       inkscape:collect="always"
       id="linearGradient4332">
      <stop
         style="stop-color:#ffffff;stop-opacity:0.77528089"
         offset="0"
         id="stop4334" />
      <stop
         style="stop-color:#ffffff;stop-opacity:0"
         offset="1"
         id="stop4336" />
    </linearGradient>
    <linearGradient
       inkscape:collect="always"
       id="linearGradient4314">
      <stop
         style="stop-color:#bfa43c;stop-opacity:1;"
         offset="0"
         id="stop4316" />
      <stop
         style="stop-color:#e0cc61;stop-opacity:1"
         offset="1"
         id="stop4318" />
    </linearGradient>
    <linearGradient
       inkscape:collect="always"
       id="linearGradient4306">
      <stop
         style="stop-color:#e1e1aa;stop-opacity:1"
         offset="0"
         id="stop4308" />
      <stop
         style="stop-color:#f9f9ee;stop-opacity:1"
         offset="1"
         id="stop4310" />
    </linearGradient>
    <linearGradient
       inkscape:collect="always"
       id="linearGradient4298">
      <stop
         style="stop-color:#aaa21c;stop-opacity:1"
         offset="0"
         id="stop4300" />
      <stop
         style="stop-color:#ede387;stop-opacity:1"
         offset="1"
         id="stop4302" />
    </linearGradient>
    <linearGradient
       inkscape:collect="always"
       id="linearGradient4290">
      <stop
         style="stop-color:#8b020a;stop-opacity:1;"
         offset="0"
         id="stop4292" />
      <stop
         style="stop-color:#c5030e;stop-opacity:1"
         offset="1"
         id="stop4294" />
    </linearGradient>
    <linearGradient
       inkscape:collect="always"
       id="linearGradient4282">
      <stop
         style="stop-color:#ee3c2a;stop-opacity:1"
         offset="0"
         id="stop4284" />
      <stop
         style="stop-color:#f47b6e;stop-opacity:0.83146065"
         offset="1"
         id="stop4286" />
    </linearGradient>
    <linearGradient
       inkscape:collect="always"
       id="linearGradient4274">
      <stop
         style="stop-color:#f92421;stop-opacity:1;"
         offset="0"
         id="stop4276" />
      <stop
         style="stop-color:#5b0102;stop-opacity:1"
         offset="1"
         id="stop4278" />
    </linearGradient>
    <radialGradient
       inkscape:collect="always"
       xlink:href="#linearGradient4274"
       id="radialGradient4280"
       cx="-20097.973"
       cy="9351.2871"
       fx="-20097.973"
       fy="9351.2871"
       r="311.47986"
       gradientTransform="matrix(-0.63814185,0.54076256,-0.97016023,-1.1448647,-23940.999,30943.913)"
       gradientUnits="userSpaceOnUse" />
    <linearGradient
       inkscape:collect="always"
       xlink:href="#linearGradient4282"
       id="linearGradient4288"
       x1="58.239922"
       y1="725.43213"
       x2="264.55609"
       y2="461.28128"
       gradientUnits="userSpaceOnUse"
       gradientTransform="matrix(1.4788749,0,0,1.4788749,49.365149,-385.31593)" />
    <linearGradient
       inkscape:collect="always"
       xlink:href="#linearGradient4290"
       id="linearGradient4296"
       x1="270.55771"
       y1="430.90079"
       x2="79.791527"
       y2="719.80438"
       gradientUnits="userSpaceOnUse"
       gradientTransform="matrix(1.4788749,0,0,1.4788749,49.365149,-385.31593)" />
    <linearGradient
       inkscape:collect="always"
       xlink:href="#linearGradient4298"
       id="linearGradient4304"
       x1="82.270058"
       y1="649.04785"
       x2="222.90358"
       y2="482.87778"
       gradientUnits="userSpaceOnUse"
       gradientTransform="matrix(1.4788749,0,0,1.4788749,49.365149,-385.31593)" />
    <linearGradient
       inkscape:collect="always"
       xlink:href="#linearGradient4306"
       id="linearGradient4312"
       x1="150.96268"
       y1="681.11188"
       x2="251.18727"
       y2="489.18292"
       gradientUnits="userSpaceOnUse"
       gradientTransform="matrix(1.4788749,0,0,1.4788749,49.365149,-385.31593)" />
    <linearGradient
       inkscape:collect="always"
       xlink:href="#linearGradient4314"
       id="linearGradient4320"
       x1="202.62859"
       y1="808.43768"
       x2="67.182091"
       y2="424.15198"
       gradientUnits="userSpaceOnUse"
       gradientTransform="matrix(1.4788749,0,0,1.4788749,49.365149,-385.31593)" />
    <radialGradient
       inkscape:collect="always"
       xlink:href="#linearGradient4332"
       id="radialGradient4340"
       cx="-20107.127"
       cy="9210.9248"
       fx="-20107.127"
       fy="9210.9248"
       r="311.47986"
       gradientTransform="matrix(-0.8077861,0.13599659,-0.12955266,-0.76951058,-14644.129,10044.857)"
       gradientUnits="userSpaceOnUse" />
  </defs>
  <sodipodi:namedview
     id="base"
     pagecolor="#ffffff"
     bordercolor="#666666"
     borderopacity="1.0"
     inkscape:pageopacity="0.0"
     inkscape:pageshadow="2"
     inkscape:zoom="0.35"
     inkscape:cx="106.80192"
     inkscape:cy="681.44056"
     inkscape:document-units="px"
     inkscape:current-layer="layer1"
     showgrid="false"
     inkscape:window-width="1920"
     inkscape:window-height="1019"
     inkscape:window-x="1272"
     inkscape:window-y="-8"
     inkscape:window-maximized="1"
     inkscape:snap-global="false"
     inkscape:object-nodes="true"
     fit-margin-top="0"
     fit-margin-left="0"
     fit-margin-right="0"
     fit-margin-bottom="0" />
  <metadata
     id="metadata7">
    <rdf:RDF>
      <cc:Work
         rdf:about="">
        <dc:format>image/svg+xml</dc:format>
        <dc:type
           rdf:resource="http://purl.org/dc/dcmitype/StillImage" />
        <dc:title />
      </cc:Work>
    </rdf:RDF>
  </metadata>
  <g
     inkscape:label="Layer 1"
     inkscape:groupmode="layer"
     id="layer1"
     transform="translate(103.08569,-4.6275373)">
    <path
       style="opacity:1;fill:url(#linearGradient4320);fill-opacity:1;fill-rule:nonzero;stroke:none;stroke-width:0.99999994;stroke-linecap:round;stroke-linejoin:round;stroke-miterlimit:4;stroke-dasharray:none;stroke-dashoffset:0;stroke-opacity:1"
       d="M 307.49121,9.8897365 162.55396,234.02069 -93.691944,303.00852 c -10.032336,2.70096 -11.946326,10.63614 -6.137884,17.78074 L 67.851085,527.043 54.254308,792.52896 c -0.532748,10.40226 5.000568,14.74676 16.103684,10.46005 L 317.26679,707.66216 563.7941,801.95914 c 8.95908,3.42686 17.34421,0.68559 16.68154,-11.5112 L 566.12216,526.26601 732.33441,320.50951 c 6.57894,-8.14415 4.39862,-16.18239 -6.48022,-19.07502 L 470.50365,233.53833 325.22793,10.418479 C 320.10487,2.5503023 311.93165,3.0230394 307.49121,9.8897365 Z"
       id="path4200"
       inkscape:connector-curvature="0"
       sodipodi:nodetypes="scsscsscsscsscss"
       inkscape:export-xdpi="90"
       inkscape:export-ydpi="90" />
    <path
       style="opacity:1;fill:#fcfdee;fill-opacity:1;fill-rule:nonzero;stroke:none;stroke-width:1;stroke-linecap:round;stroke-linejoin:round;stroke-miterlimit:4;stroke-dasharray:none;stroke-dashoffset:0;stroke-opacity:1"
       d="M 316.17753,13.304118 458.69658,249.60423 727.94199,311.48839 548.69763,521.15429 571.59411,795.24367 317.6753,687.19275 107.99197,775.39707 68.907424,747.93226 89.326686,520.78082 -31.4448,381.38255 180.32766,258.47416 c -3.66098,-6.25326 -3.95876,-12.4356 2.86826,-23.80029 z"
       id="path4215"
       inkscape:connector-curvature="0"
       sodipodi:nodetypes="cccccccccccsc"
       inkscape:export-xdpi="90"
       inkscape:export-ydpi="90" />
    <path
       style="opacity:1;fill:#694406;fill-opacity:1;fill-rule:nonzero;stroke:none;stroke-width:1;stroke-linecap:round;stroke-linejoin:round;stroke-miterlimit:4;stroke-dasharray:none;stroke-dashoffset:0;stroke-opacity:1"
       d="M 84.222691,577.56448 83.725882,577.92265 60.45671,800.75039 317.61053,692.48347 564.01072,797.15142 c 4.67541,1.98602 5.75293,-0.22256 7.58212,-1.90638 L 317.67406,687.19187 107.99156,775.39578 68.90825,747.93261 84.222691,577.56448 Z"
       id="path4225"
       inkscape:connector-curvature="0"
       inkscape:export-xdpi="90"
       inkscape:export-ydpi="90" />
    <path
       sodipodi:type="star"
       style="opacity:1;fill:url(#radialGradient4280);fill-opacity:1;fill-rule:nonzero;stroke:none;stroke-width:1.12613261;stroke-linecap:round;stroke-linejoin:round;stroke-miterlimit:4;stroke-dasharray:none;stroke-dashoffset:0;stroke-opacity:1"
       id="path4202"
       sodipodi:sides="5"
       sodipodi:cx="-20188.412"
       sodipodi:cy="9377.0293"
       sodipodi:r1="329.31332"
       sodipodi:r2="176.48949"
       sodipodi:arg1="1.0471976"
       sodipodi:arg2="1.6755161"
       inkscape:flatsided="false"
       inkscape:rounded="-3.46945e-018"
       inkscape:randomized="0"
       d="m -20023.755,9662.223 -183.105,-109.671 -201.906,69.2048 47.721,-208.0333 -128.21,-170.638 212.598,-18.9006 122.668,-174.6649 83.671,196.3521 204.023,62.6891 -160.886,140.2528 z"
       inkscape:transform-center-x="118.65709"
       transform="matrix(1.3058236,-0.13930716,0.13930716,1.3058236,25373.07,-14611.368)"
       inkscape:transform-center-y="-0.51962695"
       inkscape:export-xdpi="90"
       inkscape:export-ydpi="90" />
    <path
       style="opacity:1;fill:#694406;fill-opacity:1;fill-rule:nonzero;stroke:none;stroke-width:1;stroke-linecap:round;stroke-linejoin:round;stroke-miterlimit:4;stroke-dasharray:none;stroke-dashoffset:0;stroke-opacity:1"
       d="m 316.10276,4.6275595 c -3.23874,-0.00739 -6.39018,1.8293683 -8.6104,5.2627242 l -54.03381,83.5564313 62.71932,-80.142316 142.5179,236.299361 269.24766,61.88457 c 2.56228,-1.46422 5.21584,-0.39814 7.91429,1.94967 0.98422,-5.37782 -2.34469,-9.96809 -10.00263,-12.00429 L 470.50365,233.53833 325.22731,10.418863 c -2.56153,-3.934088 -5.8858,-5.7842936 -9.12455,-5.7913035 z M 727.94343,311.48833 548.69628,521.15349 578.29399,750.33 566.12216,526.26601 727.94343,311.48833 Z"
       id="path4217"
       inkscape:connector-curvature="0"
       inkscape:export-xdpi="90"
       inkscape:export-ydpi="90" />
    <path
       id="path4204"
       d="M 316.20675,43.358479 305.58022,62.534754 318.09578,406.78043 330.38893,68.76799 316.20675,43.358479 Z m -21.89428,39.510805 -19.16183,34.586036 38.74537,289.5273 -19.58354,-324.113336 z m 46.64522,4.829458 -18.73146,319.275218 37.67954,-285.33043 -18.94808,-33.944788 z m -74.64275,45.700698 -14.56056,26.27602 57.97651,247.91662 -43.41595,-274.19264 z m 102.37454,3.98602 -42.29525,270.18929 56.69983,-244.38696 -14.40458,-25.80233 z m -124.19661,35.39769 -11.59414,20.92665 72.74504,214.88746 -61.1509,-235.81411 z m 145.83092,3.35346 -59.84244,232.42887 71.31529,-211.87193 -11.47285,-20.55694 z m -163.61785,28.74563 -9.59537,17.31902 84.56451,187.79399 -74.96914,-205.11301 z m 181.26037,2.86243 -73.51336,202.2217 83.01052,-185.20598 -9.49716,-17.01572 z m -196.29753,24.27724 -8.20602,14.80896 94.3967,164.93788 -86.19068,-179.74684 z m 211.21915,2.45805 -84.61648,177.25413 92.73585,-162.70224 -8.11937,-14.55189 z m -224.32395,21.19239 -7.22396,13.03547 102.89157,145.19548 -95.66761,-158.23095 z m 237.33343,2.11434 -93.98077,156.05595 101.13252,-143.24579 -7.15175,-12.81016 z m -251.70624,15.51373 -14.63856,2.89132 121.27353,140.18694 -106.63497,-143.07826 z m 267.27485,0.0809 -106.15259,142.95116 120.77671,-140.11184 -14.62412,-2.83932 z m -291.82648,4.76879 -16.61424,3.28126 144.65245,137.73755 -128.03821,-141.01881 z m 316.37235,0 -127.52408,140.94948 144.13254,-137.726 -16.60846,-3.22348 z m 27.6163,5.36092 L 351.3387,422.1931 523.03842,287.28042 503.62819,283.51103 Z m -371.60781,0.0924 -19.41023,3.83294 L 284.80954,422.25084 132.02038,283.60343 Z M 535.56553,289.71246 353.89495,425.53209 559.01087,294.2675 535.56553,289.71246 Z M 100.09749,289.906 76.666569,294.53327 282.25618,425.59855 100.09749,289.9089 l 0,-0.003 z M 573.6927,297.11841 356.12481,429.10221 603.11713,302.8346 573.6927,297.11841 Z m -511.687786,0.30906 -29.38687,5.80285 247.419816,125.94409 -218.032946,-131.74406 0,-0.003 z m 558.965636,8.87325 -262.97403,126.57378 301.6645,-119.0581 -38.69047,-7.51568 z m -606.165435,0.4477 -38.61539,7.62255 L 278.15749,432.94093 14.805115,306.74842 Z M 682.41307,318.2328 359.49272,436.80564 678.96433,345.2165 700.68531,321.78267 682.41307,318.2328 Z m -728.914832,0.62101 -20.897774,4.12468 20.204551,21.66031 323.876485,92.24483 -323.183262,-118.02692 0,-0.003 z m 14.92451,42.52632 26.3395598,28.24016 280.8158122,51.32446 -307.155372,-79.56462 z m 695.143392,0.44481 -302.96138,79.04183 277.10133,-51.14538 25.86005,-27.89645 z M 7.0150229,402.75397 27.023165,424.20343 274.87047,445.09253 7.0150229,402.75397 Z M 625.61511,402.7658 361.3211,445.01483 605.96219,423.96687 625.61511,402.7658 Z m -29.60634,31.93734 -234.37861,14.50858 218.7262,2.37429 15.65241,-16.88287 z M 37.100883,435.00643 53.030569,452.0857 274.56718,449.2897 37.100883,435.00643 Z m 324.436847,18.41084 197.36622,21.31081 12.95746,-13.9742 -210.32368,-7.33661 z m -86.86657,0.0809 -213.041747,7.80164 13.179896,14.13018 199.861851,-21.93182 z m 86.36109,4.09868 179.32232,37.14228 11.07707,-11.94941 -190.39939,-25.19287 z m -85.84984,0.0779 -192.816982,25.85721 11.267755,12.07941 181.549227,-37.93662 z m 84.94866,4.03226 163.73626,50.81899 9.75141,-10.51965 -173.48767,-40.29934 z m -84.0388,0.0779 -175.65106,41.12544 9.91598,10.62942 165.73508,-51.75486 z m 82.7419,3.92538 166.62754,69.9837 -1.77628,-14.44791 -164.85126,-55.53579 z m -81.43922,0.0751 -167.24284,56.66518 -1.75328,14.66165 168.99612,-71.32683 z m 79.76682,3.78673 171.53793,92.4499 -2.01896,-16.41494 -169.51897,-76.03496 z m -78.08287,0.0722 -171.87587,77.45031 -1.99591,16.64889 173.87178,-94.0992 z m 76.03785,3.60766 177.29744,118.96834 -2.36265,-19.19649 -174.93479,-99.77206 z m -73.98996,0.0664 -0.0318,0.0231 0.0318,-0.0203 0,-0.003 z m -0.0318,0.0231 -177.21369,101.48202 -2.33384,19.45355 179.54753,-120.93557 z m 71.63589,3.37658 184.07081,151.20918 -2.85083,-23.19407 -181.21998,-128.01511 z m -69.21247,0.0663 -183.4787,130.089 -2.810435,23.49158 186.289135,-153.58058 z m 66.50027,3.15416 192.16703,191.78004 -3.57873,-29.1269 -188.5883,-162.65314 z m -63.78514,0.0606 L 95.458677,645.12185 91.929016,674.59249 286.23354,479.99913 Z m 60.77828,2.88265 202.08024,244.98775 -4.71392,-38.32655 L 347.01182,482.8818 Z m -57.76277,0.0549 L 89.782918,692.52671 85.141217,731.2663 289.24905,482.93665 Z m 54.48153,2.58225 186.41339,276.59581 24.5545,11.36307 -2.81918,-22.90234 L 343.73058,485.5189 Z m -51.21183,0.0694 -210.115773,268.51979 -2.408939,20.11501 27.275422,-12.72353 185.24929,-275.91127 z m 47.69372,2.24432 134.70181,248.73405 34.63518,16.025 -169.33699,-264.75905 z m -44.15829,0.0376 -168.22778,264.03412 34.51958,-16.1001 133.7082,-247.93395 z m 40.4351,1.92081 95.9218,227.1055 26.32801,12.18339 -122.24981,-239.28889 z m -36.71191,0.0491 -121.29374,238.43683 26.21538,-12.23249 95.07836,-226.20432 z m 32.81254,1.53954 65.53264,209.65073 20.97577,9.70512 -86.50841,-219.35585 z m -28.91316,0.0404 -85.69965,218.43156 20.86601,-9.73401 64.83364,-208.69755 z m 24.8867,1.16693 40.8308,195.15082 17.35945,8.0356 -58.19025,-203.18642 z m -20.85156,0.0203 -57.53748,202.22169 17.26702,-8.05293 40.27334,-194.16876 -0.003,0 z m 16.7182,0.79432 20.11791,182.84034 14.84651,6.87158 -34.96442,-189.71192 z m -12.58487,0.0148 -34.43872,188.71542 14.75697,-6.88602 19.68175,-181.8294 z m 4.18822,0.3986 -14.88984,177.2397 12.98925,-6.05993 1.90348,-171.17977 -0.003,0 z m 4.21134,0 2.21831,172.21094 13.06723,6.04837 -15.28554,-178.25931 z"
       style="opacity:1;fill:url(#linearGradient4296);fill-opacity:1;fill-rule:nonzero;stroke:none;stroke-width:1;stroke-linecap:round;stroke-linejoin:round;stroke-miterlimit:4;stroke-dasharray:none;stroke-dashoffset:0;stroke-opacity:1"
       inkscape:connector-curvature="0"
       inkscape:export-xdpi="90"
       inkscape:export-ydpi="90" />
    <path
       id="path4206"
       d="m 318.09578,81.427958 -3.73185,40.819252 3.73185,285.68283 3.73762,-285.68283 -3.73762,-40.819252 z m -32.62768,17.402778 -2.8711,5.178944 0.11846,20.13234 31.29611,283.98442 -23.86129,-284.70653 -4.67637,-24.589174 -0.006,0 z m 63.89779,3.931144 -3.88204,20.60894 -23.3645,284.73829 30.8022,-284.03062 0.0578,-14.84941 -3.61052,-6.4672 -0.003,0 z m -87.9786,39.53391 -5.25116,9.47405 53.81717,256.94873 -48.56601,-266.42278 z m 112.17785,3.82139 -47.39332,262.58694 52.58671,-253.28332 -5.19339,-9.30362 z m -132.9572,33.67617 -4.18533,7.55325 69.55043,222.35403 -65.3651,-229.90728 z m 153.56035,3.23504 -64.01622,226.64914 68.15245,-219.23453 -4.13623,-7.41461 z M 223.52,210.63598 220.051,216.89232 302.10833,411.06108 223.52,210.63598 Z m 187.60047,2.76134 -77.0979,197.63488 80.52936,-191.4883 -3.43146,-6.14658 z m -202.15815,23.50603 -2.96353,5.35225 92.39502,170.53276 -89.43149,-175.88501 z m 216.60318,2.3714 -87.82553,173.47895 90.76306,-168.21912 -2.93753,-5.25983 z m -229.36714,20.6667 -2.61115,4.71391 101.27405,150.20978 -98.6629,-154.92369 z m 242.04155,2.03922 -96.9645,152.84404 99.54965,-148.211 -2.58515,-4.63304 z m -258.60379,12.22094 -5.28871,1.04272 117.14595,141.96332 -111.85724,-143.00604 z m 276.37629,0.0607 -111.4182,142.96561 116.70981,-141.93733 -5.29161,-1.02828 z m 25.12644,4.88144 -133.47424,140.7964 139.47927,-139.62948 -6.00503,-1.16692 z m -326.63206,0.0203 -6.00793,1.18425 139.98187,139.64393 -133.97394,-140.82818 z m 355.07446,5.50246 -159.12064,138.26902 166.13361,-136.90568 -7.01297,-1.36334 z m -383.51102,0.1127 -7.01599,1.38356 166.63338,136.83048 -159.61739,-138.21413 z m 416.62673,6.31988 -189.74364,135.08886 198.20679,-133.44536 -8.46315,-1.6435 z m -449.725218,0.21365 -8.457316,1.6695 L 283.20357,426.25133 92.971742,291.31266 Z M 582.54864,298.83701 355.11965,429.66256 593.1578,300.89935 582.54864,298.83701 Z M 53.160547,299.17495 42.565784,301.26618 281.04303,429.73187 53.160547,299.17495 Z m 582.792193,10.0344 -18.76027,6.23901 -260.25023,117.88539 263.24554,-111.03981 21.66611,-11.93788 -5.90115,-1.14671 z M -0.18582599,309.70617 -6.0233297,310.85864 15.787176,322.82252 279.18866,433.38863 18.770925,315.97405 -0.18582599,309.70617 Z M 668.77977,335.83488 628.81554,344.95364 358.4009,437.1638 631.13486,352.05339 668.77977,335.83488 Z M -32.781737,336.45011 4.892024,352.60509 277.77622,437.23601 7.1969984,345.49955 -32.781737,336.45011 Z m 685.536567,37.0383 -15.2163,1.95259 -278.05447,65.67417 279.67784,-58.38089 7.14296,-2.29052 6.44997,-6.95535 z m -672.896801,0.1531 5.603546,6.00504 11.4612803,3.65098 L 276.70173,441.19027 -1.4682915,376.00425 -20.141971,373.64151 Z m 639.107911,36.29598 -258.78578,35.21571 251.69753,-27.57005 7.08825,-7.64566 z m -605.177552,0.0751 7.215298,7.73809 254.996154,27.47761 -262.211452,-35.2157 z m 576.977772,30.34293 -230.28559,8.8848 224.63584,-2.78734 5.64975,-6.09746 z m -548.330354,0.36972 5.750856,6.16679 227.532988,2.42627 -233.283844,-8.59306 z m 317.958104,12.61087 202.48451,17.10815 4.67931,-5.05186 -207.16382,-12.05629 z m -84.57604,0.0779 -209.812495,12.57911 4.763027,5.10386 205.049468,-17.68297 z m 84.08212,3.98893 183.87448,33.64729 4.00612,-4.32108 -187.8806,-29.32621 z m -83.58821,0.0779 -190.231832,30.03099 4.072688,4.3673 186.159144,-34.39829 z m 82.73613,3.93404 167.84934,47.84103 3.52682,-3.80407 -171.37616,-44.03696 z m -81.84648,0.0664 -173.51363,44.90928 3.58743,3.84449 169.9262,-48.75377 z m 80.55535,3.82428 167.12447,65.65974 -0.64124,-5.22806 -166.48323,-60.43168 z m -79.28734,0.0722 -168.86324,61.63038 -0.63257,5.30314 169.49581,-66.93352 z m 77.65827,3.68564 171.90768,87.54824 -0.73086,-5.93573 -171.17682,-81.61251 z m -76.01765,0.0694 -173.52516,83.10583 -0.71922,6.01949 174.24438,-89.12532 z m 74.03041,3.51233 177.48814,113.20036 -0.85212,-6.938 -176.63602,-106.26236 z m -72.03739,0.0664 -178.94097,108.07341 -0.83764,7.03042 179.77861,-115.10383 z m 69.7122,3.31013 184.0333,144.13832 -1.03122,-8.37355 -183.00208,-135.76477 z m -67.38412,0.0606 -185.246414,137.93396 -1.013842,8.47465 186.260256,-146.40861 z m 64.74699,3.07329 191.7974,182.70458 -1.29121,-10.50232 -190.50619,-172.20226 z m -62.1012,0.0578 L 94.398619,653.9893 93.121936,664.61872 287.07695,479.21345 Z m 59.17233,2.80755 186.87832,216.11214 13.91074,13.0528 -0.98789,-8.05293 -7.33655,-9.9593 L 346.24928,482.021 Z M 290.0116,482.073 97.916729,693.56077 88.04697,707.00929 87.229551,713.83754 103.51161,698.51154 290.0116,482.073 Z m 53.04597,2.51871 165.14005,233.14231 27.0501,30.8022 L 514.23734,713.3379 343.05757,484.59177 Z m -49.84848,0.0433 -170.78406,229.04653 -20.94687,35.23305 26.99524,-30.84842 164.73569,-233.43116 z m 46.4228,2.20388 141.86223,247.9975 5.14718,7.15174 8.2667,3.82428 -6.97847,-14.76853 -148.29764,-244.20499 z m -42.99425,0.0404 -147.87592,244.46207 -6.50474,13.83267 8.62772,-4.02358 4.32398,-6.02814 141.42896,-248.24302 z m 39.3664,1.86881 104.33287,231.81363 9.49428,4.39331 L 336.00404,488.7481 Z m -35.73564,0.0318 -112.91152,235.35773 9.45094,-4.41062 L 300.2684,488.7799 Z m 31.94312,1.51643 72.29156,213.68587 7.57058,3.50366 -79.86214,-217.18953 z m -28.14772,0.026 -79.09671,216.26812 7.53302,-3.51522 71.56369,-212.7529 z m 24.22236,1.14959 46.43146,198.7296 6.27367,2.90287 L 328.28616,491.472 Z m -20.29122,0.0148 -0.003,0.003 -52.07835,200.66483 6.23901,-2.91153 45.84222,-197.75618 z m 16.27053,0.77699 24.86646,186.09849 5.37248,2.48694 -30.23894,-188.58543 z m -12.25272,0.0118 -29.73926,187.58315 5.33494,-2.48983 24.40432,-185.09332 z m 8.17425,0.38705 6.33721,175.24089 4.73125,2.18655 L 320.187,492.66266 Z m -4.09579,0.0173 -10.69585,176.39915 4.69947,-2.19232 5.99638,-174.20683 z"
       style="opacity:1;fill:url(#linearGradient4288);fill-opacity:1;fill-rule:nonzero;stroke:none;stroke-width:1;stroke-linecap:round;stroke-linejoin:round;stroke-miterlimit:4;stroke-dasharray:none;stroke-dashoffset:0;stroke-opacity:1"
       inkscape:connector-curvature="0"
       inkscape:export-xdpi="90"
       inkscape:export-ydpi="90" />
    <path
       sodipodi:nodetypes="ccccccccssssssscccsscsssccssc"
       inkscape:connector-curvature="0"
       id="path4208"
       d="m 205.72038,316.69424 -83.76488,102.25044 72.78867,57.76855 38.70511,-46.21484 128.24655,108.60487 c -54.03513,36.86244 -106.09448,17.29855 -132.86803,-6.35457 -11.58403,-12.04736 -26.86081,-8.02881 -27.15067,8.08752 -18.79945,-7.15184 -26.57834,-4.51634 -24.2639,16.17519 l -28.88383,12.13151 c -6.68303,2.80691 -13.09395,7.60674 -16.75269,13.86445 -4.08022,6.97807 -6.1048,15.65286 -5.19973,23.68507 0.74388,6.59815 5.39938,12.37759 9.82121,17.33049 5.38754,6.03455 11.45832,12.26402 19.0641,15.0199 6.52036,2.36235 14.67192,2.67573 20.79594,-0.57765 7.36036,-3.90985 11.64023,-12.07191 16.17594,-19.06373 l 13.86445,-21.37433 c 13.4267,4.09323 19.22537,6.63364 25.99566,-5.77678 62.65268,38.86261 150.89552,32.44814 185.43612,0.57765 l 27.15215,25.41816 c 25.57285,23.94003 60.31295,-18.36777 39.86026,-34.66113 l -34.08363,-27.15125 c 24.39552,-45.14651 42.36089,-94.6761 17.33093,-158.86355 -30.93658,-79.33543 -70.89282,-105.67685 -116.6921,-121.31389 -22.72439,-7.75876 -28.95637,4.45408 -12.70945,20.79668 70.36931,70.78487 87.12792,133.05127 52.56957,207.38913 l -128.24655,-98.2066 51.99117,-62.96769 c 4.39537,-5.32276 -1.20365,-18.55219 -8.08796,-19.06358 z"
       style="opacity:1;fill:#7a0103;fill-opacity:1;fill-rule:nonzero;stroke:none;stroke-width:1;stroke-linecap:round;stroke-linejoin:round;stroke-miterlimit:4;stroke-dasharray:none;stroke-dashoffset:0;stroke-opacity:1"
       inkscape:export-xdpi="90"
       inkscape:export-ydpi="90" />
    <path
       style="opacity:1;fill:url(#radialGradient4340);fill-opacity:1;fill-rule:nonzero;stroke:none;stroke-width:1.12613261;stroke-linecap:round;stroke-linejoin:round;stroke-miterlimit:4;stroke-dasharray:none;stroke-dashoffset:0;stroke-opacity:1"
       d="M 316.17787,13.304399 180.32645,258.47413 146.11592,265.23016 C 172.96599,486.71149 311.08681,603.77063 539.0316,515.27554 L 727.94343,311.48833 452.79182,258.04953 Z"
       id="path4322"
       inkscape:connector-curvature="0"
       sodipodi:nodetypes="ccccccc"
       inkscape:export-xdpi="90"
       inkscape:export-ydpi="90" />
    <path
       style="opacity:1;fill:url(#linearGradient4304);fill-opacity:1;fill-rule:nonzero;stroke:none;stroke-width:1;stroke-linecap:round;stroke-linejoin:round;stroke-miterlimit:4;stroke-dasharray:none;stroke-dashoffset:0;stroke-opacity:1"
       d="m 348.53981,285.04188 c -3.01297,0.004 -5.05821,2.74707 -1.28535,6.23323 75.68645,69.92375 105.71916,142.79887 49.01083,232.03027 l -149.11796,-118.86169 52.73692,-60.02151 -4.62149,-9.24297 -84.91977,-6.35455 -76.25449,86.65283 61.23467,47.9479 40.00471,-45.5274 142.2204,125.92389 c -44.72454,34.4898 -124.77467,25.23333 -151.0301,-5.87507 -9.7517,-6.76866 -19.79992,-2.1417 -20.79668,9.24297 -13.32022,-6.01813 -22.86721,1.47814 -19.0665,13.86445 l -34.65824,16.75289 c -16.75114,8.09625 -25.58879,20.71567 -15.59751,32.92807 l 10.39833,12.70908 c 9.19262,11.23649 22.82799,10.89203 36.96899,-7.50991 l 21.0884,-27.44006 c 11.96558,9.22566 24.27638,3.52425 21.66321,-10.1095 65.26515,36.67969 141.09559,45.91609 190.2405,0.15598 l 35.05685,31.03904 c 18.07776,16.00675 37.78599,-11.8764 20.79667,-25.41817 l -36.34219,-28.96803 c 76.06213,-116.31424 11.08065,-228.46841 -85.54944,-269.69536 -0.7387,-0.31515 -1.48547,-0.45754 -2.18076,-0.45638 z"
       id="path4212"
       inkscape:connector-curvature="0"
       inkscape:export-xdpi="90"
       inkscape:export-ydpi="90" />
    <path
       style="opacity:1;fill:url(#linearGradient4312);fill-opacity:1;fill-rule:nonzero;stroke:none;stroke-width:1;stroke-linecap:round;stroke-linejoin:round;stroke-miterlimit:4;stroke-dasharray:none;stroke-dashoffset:0;stroke-opacity:1"
       d="m 348.53981,285.04188 c -2.03118,0.003 -3.61575,1.25336 -3.28126,3.13394 67.55874,55.59775 99.32798,120.06808 90.2778,202.35457 -4.09639,37.24552 -22.16002,64.57995 -45.56495,88.88558 9.79212,-5.06147 21.47528,-12.01507 27.63648,-13.44563 6.63265,3.22038 14.77749,4.49007 27.63647,16.43227 12.39698,11.51313 14.44116,19.9692 15.41554,31.74959 14.70255,2.66619 26.15824,-18.66736 11.95231,-29.99055 l -36.34219,-28.96803 c 76.06213,-116.31424 11.08065,-228.46841 -85.54944,-269.69536 -0.7387,-0.31515 -1.48547,-0.45754 -2.18076,-0.45638 z m -141.83625,47.91902 -0.29172,0.33217 35.80495,23.69665 c 10.4631,6.9241 8.15146,16.40678 5.566,20.52517 -16.02998,25.5341 -44.20787,48.88268 -57.12732,82.25663 l 0.31484,0.24552 38.40742,-47.91612 153.1242,118.76347 c 3.91265,-6.15559 4.64176,-10.59436 3.96581,-15.36932 l -139.32041,-111.05138 52.73692,-60.02151 -4.62149,-9.24297 -8.57286,-0.64124 c -20.81856,4.62997 -51.73744,-0.51664 -79.98634,-1.57707 z m -57.99384,78.7674 -13.14523,2.0739 -1.47599,1.67529 5.84329,4.57527 c 3.16918,-2.36644 6.12878,-5.07935 8.77793,-8.32446 z m 68.70414,123.07879 c -3.22426,0.007 -6.09656,1.29505 -8.20025,3.63942 -1.17348,3.88638 2.07529,10.2429 10.45611,16.31962 14.73041,11.74727 30.29648,18.8574 48.55158,20.91511 30.19098,3.4031 60.02457,2.11834 81.57208,-17.12837 -44.63666,15.59683 -101.85553,4.77275 -123.2752,-20.60606 -0.90662,-0.62929 -1.81377,-1.1295 -2.71801,-1.56552 -2.40793,-0.87747 -4.54186,-1.38454 -6.38631,-1.5742 z m -20.82556,10.26836 c -3.28508,0.0606 -5.98934,1.17928 -7.87386,3.08773 -0.15397,5.25428 0.73805,10.13065 4.43663,15.56575 4.58852,4.93406 6.51015,7.01205 17.55297,18.86142 3.71564,3.98705 1.96971,5.95948 -2.28763,8.18003 8.83118,4.70158 17.01813,1.58196 18.28663,-6.56539 l -1.98434,-3.17439 -10.56588,-13.73158 -14.26015,-20.60027 -0.43617,-1.39511 c -0.99098,-0.14843 -1.95849,-0.24498 -2.8682,-0.22819 z m -5.06053,45.83357 c -21.59817,0.22238 -20.02226,21.08215 -25.60013,39.32016 5.63504,-1.70481 11.6887,-6.29143 17.83893,-14.29482 l 15.95857,-20.76491 0.5228,-3.42856 c -3.26756,-0.5941 -6.15649,-0.85827 -8.72017,-0.83187 z"
       id="path4230"
       inkscape:connector-curvature="0"
       sodipodi:nodetypes="ccsccscsccccccsccccccccccccccccccscccccccscccccccsccccs"
       inkscape:export-xdpi="90"
       inkscape:export-ydpi="90" />
    <path
       style="opacity:1;fill:#673f18;fill-opacity:1;fill-rule:nonzero;stroke:none;stroke-width:1;stroke-linecap:round;stroke-linejoin:round;stroke-miterlimit:4;stroke-dasharray:none;stroke-dashoffset:0;stroke-opacity:1"
       d="m 371.23996,315.29816 c 49.21379,53.78353 69.38418,110.15256 42.42232,174.99249 13.71965,-23.41534 16.29373,-38.42397 12.28738,-71.4077 -6.24787,-51.43803 -25.88785,-76.98583 -54.7097,-103.58479 z m -160.89697,13.5265 -2.33096,2.6487 64.7701,6.07147 9.91596,-3.30436 -72.3551,-5.41581 z m -3.89938,4.43084 -71.10153,80.79799 12.78996,-4.15067 63.90935,-67.60364 -5.59778,-9.04368 z m 21.97228,80.34451 c 0,0 -0.92902,7.54002 -2.45805,14.95916 l 8.70572,-9.90441 -6.24767,-5.05475 z m 23.91039,19.34669 115.98193,102.69515 9.57802,-1.08894 L 252.32628,432.9467 Z m -40.28489,134.8809 13.52939,19.9186 c 1.24569,-2.4118 1.67223,-5.5798 0.9474,-9.3614 32.34067,18.17579 67.27216,29.59774 100.26887,30.94373 C 289.29328,592.12054 222.12144,581.82218 212.04139,567.8276 Z m 202.28813,4.22288 -14.28905,19.36402 c 5.84923,-3.68065 11.43873,-7.95786 16.71821,-12.87372 l 34.06323,30.15807 2.06522,0.3235 c -11.38349,-13.82279 -25.1925,-25.0535 -38.55761,-36.97187 z"
       id="path4255"
       inkscape:connector-curvature="0"
       inkscape:export-xdpi="90"
       inkscape:export-ydpi="90" />
    <path
       id="path4417"
       d="m 135.73202,597.52929 c -1.06519,0.0104 -2.11972,0.14798 -3.1455,0.50837 -0.0722,0.0254 -0.16515,0.0614 -0.24551,0.0867 -0.59654,4.11637 0.60339,8.38798 4.05824,12.61087 l 2.83932,3.46899 c 1.6874,-0.0896 3.20344,-1.0807 4.2922,-2.35695 1.55917,-1.82764 2.79426,-3.89693 3.98603,-5.96748 0.78763,-1.36839 1.31378,-3.26841 0.27441,-4.6677 -1.5601,-2.10033 -4.26467,-2.80726 -6.73582,-3.13685 -1.74433,-0.23264 -3.54806,-0.56388 -5.32337,-0.54591 z"
       style="opacity:1;fill:#f9f9ee;fill-opacity:1;fill-rule:nonzero;stroke:none;stroke-width:1;stroke-linecap:round;stroke-linejoin:round;stroke-miterlimit:4;stroke-dasharray:none;stroke-dashoffset:0;stroke-opacity:1"
       inkscape:connector-curvature="0"
       sodipodi:nodetypes="cccccssssc"
       inkscape:export-xdpi="90"
       inkscape:export-ydpi="90" />
  </g>
</svg>
